<?xml version="1.0" standalone="no"?>
<!DOCTYPE svg PUBLIC "-//W3C//DTD SVG 20010904//EN"
 "http://www.w3.org/TR/2001/REC-SVG-20010904/DTD/svg10.dtd">
<svg version="1.0" xmlns="http://www.w3.org/2000/svg"
 width="200.000000pt" height="200.000000pt" viewBox="0 0 200.000000 200.000000"
 preserveAspectRatio="xMidYMid meet">
<metadata>
Created by potrace 1.14, written by Peter Selinger 2001-2017
</metadata>
<g transform="translate(0.000000,200.000000) scale(0.100000,-0.100000)"
fill="#000000" stroke="none">
<path d="M657 1722 l-338 -126 1 -296 c1 -162 5 -315 10 -340 4 -25 11 -61 14
-80 8 -53 49 -167 86 -240 114 -227 307 -402 513 -466 55 -17 59 -17 115 0
212 67 405 245 520 481 85 175 100 266 101 645 l2 295 -328 122 c-180 67 -335
124 -343 126 -8 3 -167 -52 -353 -121z m616 -127 l266 -100 -3 -265 c-1 -146
-5 -271 -9 -277 -4 -6 -9 -28 -13 -49 -9 -57 -52 -172 -87 -231 l-31 -51 -45
23 c-196 99 -476 103 -680 10 -29 -14 -59 -25 -65 -25 -23 0 -109 193 -121
271 -4 24 -9 48 -12 53 -3 5 -7 129 -9 275 l-3 266 267 101 c147 56 270 101
273 100 4 0 126 -46 272 -101z m-139 -1017 c43 -9 164 -54 175 -64 11 -10
-130 -123 -209 -166 -92 -50 -98 -50 -186 -6 -78 39 -143 85 -198 141 -34 35
-34 35 73 72 115 41 234 48 345 23z"/>
<path d="M910 1496 c-125 -40 -202 -156 -194 -292 8 -158 124 -265 289 -266
244 -3 374 301 206 479 -77 81 -198 113 -301 79z m139 -126 c132 -35 143 -240
15 -291 -110 -43 -225 37 -219 152 7 106 98 168 204 139z"/>
</g>
</svg>
